<svg xmlns="http://www.w3.org/2000/svg" xmlns:xlink="http://www.w3.org/1999/xlink" width="627" zoomAndPan="magnify" viewBox="0 0 470.25 155.999997" height="208" preserveAspectRatio="xMidYMid meet" version="1.0"><defs><g/><clipPath id="10771bf42e"><path d="M 8 26.203125 L 167 26.203125 L 167 80 L 8 80 Z M 8 26.203125 " clip-rule="nonzero"/></clipPath><clipPath id="d80a461917"><path d="M 0.605469 94 L 158 94 L 158 129.117188 L 0.605469 129.117188 Z M 0.605469 94 " clip-rule="nonzero"/></clipPath><clipPath id="434a5d628f"><path d="M 140 90 L 173.015625 90 L 173.015625 123 L 140 123 Z M 140 90 " clip-rule="nonzero"/></clipPath><clipPath id="63830f9126"><path d="M 8 26.203125 L 167 26.203125 L 167 80 L 8 80 Z M 8 26.203125 " clip-rule="nonzero"/></clipPath><clipPath id="c97ea0238b"><path d="M 0.605469 94 L 158 94 L 158 129.117188 L 0.605469 129.117188 Z M 0.605469 94 " clip-rule="nonzero"/></clipPath><clipPath id="c490a51616"><path d="M 140 90 L 173.015625 90 L 173.015625 123 L 140 123 Z M 140 90 " clip-rule="nonzero"/></clipPath></defs><g clip-path="url(#10771bf42e)"><path fill="#ffffff" d="M 49.230469 63.59375 C 49.230469 65.3125 49.230469 67.027344 49.917969 68.742188 C 50.261719 70.113281 50.953125 71.484375 51.640625 72.859375 C 51.988281 73.199219 51.988281 73.542969 51.988281 74.230469 C 51.988281 74.914062 51.640625 75.601562 50.953125 75.945312 L 47.503906 78.347656 C 47.160156 78.6875 46.46875 78.6875 46.125 78.6875 C 45.4375 78.6875 44.746094 78.347656 44.402344 78.003906 C 43.710938 77.316406 43.023438 76.289062 42.332031 75.257812 C 41.644531 74.230469 41.296875 73.199219 40.609375 71.828125 C 36.472656 76.972656 30.265625 79.71875 23.714844 79.71875 C 19.578125 80.0625 15.4375 78.347656 12.335938 75.601562 C 9.578125 72.859375 7.851562 68.742188 8.199219 64.625 C 8.199219 60.164062 9.921875 55.707031 13.371094 52.960938 C 17.507812 49.875 22.335938 48.160156 27.507812 48.5 C 29.574219 48.5 31.644531 48.5 33.710938 48.84375 C 35.78125 49.1875 37.851562 49.53125 40.265625 50.21875 L 40.265625 45.757812 C 40.609375 42.328125 39.574219 39.238281 37.503906 36.496094 C 34.402344 34.78125 30.953125 33.75 27.851562 34.09375 C 25.78125 34.09375 23.714844 34.4375 21.644531 34.78125 C 19.578125 35.464844 17.507812 36.152344 15.4375 36.839844 C 14.75 37.179688 14.058594 37.179688 13.371094 37.523438 C 13.023438 37.523438 12.679688 37.523438 12.335938 37.523438 C 11.644531 37.523438 11.300781 36.839844 11.300781 35.808594 L 11.300781 33.066406 C 11.300781 32.378906 11.300781 31.691406 11.644531 31.007812 C 11.992188 30.320312 12.679688 29.976562 13.371094 29.976562 C 15.4375 28.949219 17.851562 27.917969 20.609375 27.234375 C 23.367188 26.546875 26.472656 26.203125 29.574219 26.203125 C 35.09375 25.859375 40.265625 27.574219 44.402344 31.007812 C 47.847656 34.78125 49.574219 39.925781 49.230469 45.070312 Z M 25.78125 72.171875 C 27.851562 72.171875 29.921875 71.828125 31.644531 71.140625 C 33.710938 70.457031 35.78125 69.085938 37.160156 67.367188 C 38.195312 66.339844 38.886719 64.96875 39.230469 63.59375 C 39.574219 61.878906 39.917969 60.164062 39.917969 58.792969 L 39.917969 56.390625 C 38.195312 56.046875 36.472656 55.707031 34.746094 55.363281 C 33.023438 55.019531 31.300781 55.019531 29.230469 55.019531 C 26.128906 55.019531 23.023438 55.707031 20.609375 57.421875 C 18.542969 59.136719 17.507812 61.539062 17.851562 63.9375 C 17.851562 65.996094 18.542969 68.398438 19.921875 70.113281 C 21.644531 71.484375 23.714844 72.171875 25.78125 72.171875 Z M 71.984375 78.347656 C 71.296875 78.347656 70.605469 78.347656 69.917969 77.660156 C 69.226562 76.972656 68.882812 76.289062 68.882812 75.257812 L 55.089844 31.347656 C 54.746094 30.664062 54.746094 29.976562 54.746094 28.949219 C 54.746094 28.261719 55.089844 27.574219 55.78125 27.574219 C 55.78125 27.574219 56.125 27.574219 56.125 27.574219 L 61.640625 27.574219 C 62.332031 27.574219 63.367188 27.574219 64.054688 28.261719 C 64.746094 28.949219 65.089844 29.632812 65.089844 30.664062 L 74.742188 68.398438 L 83.707031 30.664062 C 83.707031 29.976562 84.054688 28.949219 84.742188 28.261719 C 85.433594 27.917969 86.121094 27.574219 87.15625 27.574219 L 91.636719 27.574219 C 92.328125 27.574219 93.363281 27.574219 94.050781 28.261719 C 94.742188 28.949219 95.085938 29.632812 95.085938 30.664062 L 104.050781 68.742188 L 114.050781 30.664062 C 114.394531 29.976562 114.738281 28.949219 115.085938 28.261719 C 115.773438 27.917969 116.464844 27.574219 117.5 27.574219 L 122.671875 27.574219 C 123.359375 27.574219 124.050781 27.917969 124.050781 28.605469 C 124.050781 28.605469 124.050781 28.949219 124.050781 28.949219 C 124.050781 29.292969 124.050781 29.632812 124.050781 29.976562 C 124.050781 30.320312 123.703125 31.007812 123.703125 31.347656 L 109.914062 75.601562 C 109.566406 76.289062 109.222656 77.316406 108.878906 78.003906 C 108.1875 78.347656 107.5 78.6875 106.808594 78.6875 L 101.980469 78.6875 C 101.292969 78.6875 100.257812 78.6875 99.570312 78.003906 C 98.878906 77.316406 98.535156 76.632812 98.535156 75.601562 L 89.226562 38.554688 L 80.261719 75.257812 C 80.261719 76.289062 79.914062 76.972656 79.226562 77.660156 C 78.535156 78.003906 77.847656 78.347656 76.8125 78.347656 Z M 145.769531 79.71875 C 142.667969 79.71875 139.910156 79.375 136.808594 78.6875 C 134.394531 78.347656 132.324219 77.316406 130.253906 76.289062 C 128.875 75.945312 128.1875 74.574219 128.1875 73.199219 L 128.1875 70.457031 C 128.1875 69.425781 128.53125 68.742188 129.566406 68.742188 C 129.910156 68.742188 130.253906 68.742188 130.601562 69.085938 C 130.945312 69.085938 131.289062 69.425781 131.980469 69.769531 C 134.046875 70.800781 136.117188 71.484375 138.1875 71.828125 C 140.597656 72.171875 142.667969 72.515625 145.082031 72.515625 C 147.839844 72.515625 150.941406 72.171875 153.355469 70.457031 C 155.425781 69.425781 156.460938 67.367188 156.460938 64.96875 C 156.460938 63.59375 156.117188 61.878906 154.734375 60.851562 C 153.011719 59.480469 150.941406 58.449219 148.875 57.765625 L 140.597656 55.019531 C 137.152344 53.992188 133.703125 51.933594 131.289062 49.1875 C 129.566406 46.785156 128.53125 44.042969 128.53125 40.953125 C 128.53125 38.894531 128.875 36.496094 130.253906 34.78125 C 131.289062 33.066406 132.667969 31.347656 134.394531 29.976562 C 136.117188 28.605469 138.1875 27.574219 140.253906 26.890625 C 142.667969 26.546875 145.082031 26.203125 147.496094 26.203125 C 148.875 26.203125 149.910156 26.203125 151.289062 26.546875 C 152.667969 26.546875 153.703125 26.890625 155.082031 27.234375 C 156.117188 27.574219 157.496094 27.917969 158.183594 28.261719 C 158.875 28.605469 159.90625 28.949219 160.597656 29.292969 C 161.289062 29.632812 161.976562 29.976562 162.320312 30.664062 C 162.667969 31.347656 163.011719 32.035156 162.667969 32.722656 L 162.667969 35.464844 C 162.667969 36.496094 162.320312 37.179688 161.289062 37.179688 C 160.597656 37.179688 159.90625 36.839844 159.21875 36.496094 C 155.769531 35.121094 151.976562 34.09375 148.183594 34.4375 C 145.425781 34.4375 143.011719 34.78125 140.597656 36.152344 C 138.875 37.179688 137.839844 39.238281 137.839844 41.296875 C 137.839844 42.667969 138.53125 44.386719 139.566406 45.414062 C 141.289062 46.785156 143.703125 47.816406 145.769531 48.5 L 154.390625 50.21875 C 157.839844 51.246094 160.941406 52.960938 163.355469 55.707031 C 165.078125 58.105469 166.113281 60.851562 166.113281 63.59375 C 166.113281 65.996094 165.769531 68.054688 164.734375 70.113281 C 163.699219 72.171875 162.320312 73.886719 160.597656 75.257812 C 158.527344 76.632812 156.460938 77.660156 154.390625 78.347656 C 150.941406 79.375 148.183594 79.71875 145.769531 79.71875 Z M 145.769531 79.71875 " fill-opacity="1" fill-rule="nonzero"/></g><g clip-path="url(#d80a461917)"><path fill="#ff9900" d="M 156.460938 107.847656 C 137.496094 121.914062 110.257812 129.117188 86.8125 129.117188 C 55.089844 129.117188 24.75 117.796875 1.300781 96.871094 C -0.421875 95.15625 0.957031 93.097656 3.371094 94.46875 C 29.230469 109.21875 58.882812 117.109375 88.535156 117.109375 C 110.945312 117.109375 133.015625 112.648438 153.703125 103.730469 C 156.804688 102.015625 159.5625 105.445312 156.460938 107.847656 Z M 156.460938 107.847656 " fill-opacity="1" fill-rule="evenodd"/></g><g clip-path="url(#434a5d628f)"><path fill="#ff9900" d="M 164.390625 98.929688 C 161.976562 95.839844 148.53125 97.554688 142.324219 98.242188 C 140.597656 98.585938 140.253906 96.871094 141.980469 95.839844 C 152.667969 88.292969 170.597656 90.351562 172.664062 93.097656 C 174.734375 95.5 171.976562 113.335938 161.976562 121.570312 C 160.253906 122.941406 158.875 122.253906 159.5625 120.539062 C 161.632812 114.707031 166.804688 102.015625 164.390625 98.929688 Z M 164.390625 98.929688 " fill-opacity="1" fill-rule="evenodd"/></g><g clip-path="url(#63830f9126)"><path fill="#ffffff" d="M 49.230469 63.59375 C 49.230469 65.3125 49.230469 67.027344 49.917969 68.742188 C 50.261719 70.113281 50.953125 71.484375 51.640625 72.859375 C 51.988281 73.199219 51.988281 73.542969 51.988281 74.230469 C 51.988281 74.914062 51.640625 75.601562 50.953125 75.945312 L 47.503906 78.347656 C 47.160156 78.6875 46.46875 78.6875 46.125 78.6875 C 45.4375 78.6875 44.746094 78.347656 44.402344 78.003906 C 43.710938 77.316406 43.023438 76.289062 42.332031 75.257812 C 41.644531 74.230469 41.296875 73.199219 40.609375 71.828125 C 36.472656 76.972656 30.265625 79.71875 23.714844 79.71875 C 19.578125 80.0625 15.4375 78.347656 12.335938 75.601562 C 9.578125 72.859375 7.851562 68.742188 8.199219 64.625 C 8.199219 60.164062 9.921875 55.707031 13.371094 52.960938 C 17.507812 49.875 22.335938 48.160156 27.507812 48.5 C 29.574219 48.5 31.644531 48.5 33.710938 48.84375 C 35.78125 49.1875 37.851562 49.53125 40.265625 50.21875 L 40.265625 45.757812 C 40.609375 42.328125 39.574219 39.238281 37.503906 36.496094 C 34.402344 34.78125 30.953125 33.75 27.851562 34.09375 C 25.78125 34.09375 23.714844 34.4375 21.644531 34.78125 C 19.578125 35.464844 17.507812 36.152344 15.4375 36.839844 C 14.75 37.179688 14.058594 37.179688 13.371094 37.523438 C 13.023438 37.523438 12.679688 37.523438 12.335938 37.523438 C 11.644531 37.523438 11.300781 36.839844 11.300781 35.808594 L 11.300781 33.066406 C 11.300781 32.378906 11.300781 31.691406 11.644531 31.007812 C 11.992188 30.320312 12.679688 29.976562 13.371094 29.976562 C 15.4375 28.949219 17.851562 27.917969 20.609375 27.234375 C 23.367188 26.546875 26.472656 26.203125 29.574219 26.203125 C 35.09375 25.859375 40.265625 27.574219 44.402344 31.007812 C 47.847656 34.78125 49.574219 39.925781 49.230469 45.070312 Z M 25.78125 72.171875 C 27.851562 72.171875 29.921875 71.828125 31.644531 71.140625 C 33.710938 70.457031 35.78125 69.085938 37.160156 67.367188 C 38.195312 66.339844 38.886719 64.96875 39.230469 63.59375 C 39.574219 61.878906 39.917969 60.164062 39.917969 58.792969 L 39.917969 56.390625 C 38.195312 56.046875 36.472656 55.707031 34.746094 55.363281 C 33.023438 55.019531 31.300781 55.019531 29.230469 55.019531 C 26.128906 55.019531 23.023438 55.707031 20.609375 57.421875 C 18.542969 59.136719 17.507812 61.539062 17.851562 63.9375 C 17.851562 65.996094 18.542969 68.398438 19.921875 70.113281 C 21.644531 71.484375 23.714844 72.171875 25.78125 72.171875 Z M 71.984375 78.347656 C 71.296875 78.347656 70.605469 78.347656 69.917969 77.660156 C 69.226562 76.972656 68.882812 76.289062 68.882812 75.257812 L 55.089844 31.347656 C 54.746094 30.664062 54.746094 29.976562 54.746094 28.949219 C 54.746094 28.261719 55.089844 27.574219 55.78125 27.574219 C 55.78125 27.574219 56.125 27.574219 56.125 27.574219 L 61.640625 27.574219 C 62.332031 27.574219 63.367188 27.574219 64.054688 28.261719 C 64.746094 28.949219 65.089844 29.632812 65.089844 30.664062 L 74.742188 68.398438 L 83.707031 30.664062 C 83.707031 29.976562 84.054688 28.949219 84.742188 28.261719 C 85.433594 27.917969 86.121094 27.574219 87.15625 27.574219 L 91.636719 27.574219 C 92.328125 27.574219 93.363281 27.574219 94.050781 28.261719 C 94.742188 28.949219 95.085938 29.632812 95.085938 30.664062 L 104.050781 68.742188 L 114.050781 30.664062 C 114.394531 29.976562 114.738281 28.949219 115.085938 28.261719 C 115.773438 27.917969 116.464844 27.574219 117.5 27.574219 L 122.671875 27.574219 C 123.359375 27.574219 124.050781 27.917969 124.050781 28.605469 C 124.050781 28.605469 124.050781 28.949219 124.050781 28.949219 C 124.050781 29.292969 124.050781 29.632812 124.050781 29.976562 C 124.050781 30.320312 123.703125 31.007812 123.703125 31.347656 L 109.914062 75.601562 C 109.566406 76.289062 109.222656 77.316406 108.878906 78.003906 C 108.1875 78.347656 107.5 78.6875 106.808594 78.6875 L 101.980469 78.6875 C 101.292969 78.6875 100.257812 78.6875 99.570312 78.003906 C 98.878906 77.316406 98.535156 76.632812 98.535156 75.601562 L 89.226562 38.554688 L 80.261719 75.257812 C 80.261719 76.289062 79.914062 76.972656 79.226562 77.660156 C 78.535156 78.003906 77.847656 78.347656 76.8125 78.347656 Z M 145.769531 79.71875 C 142.667969 79.71875 139.910156 79.375 136.808594 78.6875 C 134.394531 78.347656 132.324219 77.316406 130.253906 76.289062 C 128.875 75.945312 128.1875 74.574219 128.1875 73.199219 L 128.1875 70.457031 C 128.1875 69.425781 128.53125 68.742188 129.566406 68.742188 C 129.910156 68.742188 130.253906 68.742188 130.601562 69.085938 C 130.945312 69.085938 131.289062 69.425781 131.980469 69.769531 C 134.046875 70.800781 136.117188 71.484375 138.1875 71.828125 C 140.597656 72.171875 142.667969 72.515625 145.082031 72.515625 C 147.839844 72.515625 150.941406 72.171875 153.355469 70.457031 C 155.425781 69.425781 156.460938 67.367188 156.460938 64.96875 C 156.460938 63.59375 156.117188 61.878906 154.734375 60.851562 C 153.011719 59.480469 150.941406 58.449219 148.875 57.765625 L 140.597656 55.019531 C 137.152344 53.992188 133.703125 51.933594 131.289062 49.1875 C 129.566406 46.785156 128.53125 44.042969 128.53125 40.953125 C 128.53125 38.894531 128.875 36.496094 130.253906 34.78125 C 131.289062 33.066406 132.667969 31.347656 134.394531 29.976562 C 136.117188 28.605469 138.1875 27.574219 140.253906 26.890625 C 142.667969 26.546875 145.082031 26.203125 147.496094 26.203125 C 148.875 26.203125 149.910156 26.203125 151.289062 26.546875 C 152.667969 26.546875 153.703125 26.890625 155.082031 27.234375 C 156.117188 27.574219 157.496094 27.917969 158.183594 28.261719 C 158.875 28.605469 159.90625 28.949219 160.597656 29.292969 C 161.289062 29.632812 161.976562 29.976562 162.320312 30.664062 C 162.667969 31.347656 163.011719 32.035156 162.667969 32.722656 L 162.667969 35.464844 C 162.667969 36.496094 162.320312 37.179688 161.289062 37.179688 C 160.597656 37.179688 159.90625 36.839844 159.21875 36.496094 C 155.769531 35.121094 151.976562 34.09375 148.183594 34.4375 C 145.425781 34.4375 143.011719 34.78125 140.597656 36.152344 C 138.875 37.179688 137.839844 39.238281 137.839844 41.296875 C 137.839844 42.667969 138.53125 44.386719 139.566406 45.414062 C 141.289062 46.785156 143.703125 47.816406 145.769531 48.5 L 154.390625 50.21875 C 157.839844 51.246094 160.941406 52.960938 163.355469 55.707031 C 165.078125 58.105469 166.113281 60.851562 166.113281 63.59375 C 166.113281 65.996094 165.769531 68.054688 164.734375 70.113281 C 163.699219 72.171875 162.320312 73.886719 160.597656 75.257812 C 158.527344 76.632812 156.460938 77.660156 154.390625 78.347656 C 150.941406 79.375 148.183594 79.71875 145.769531 79.71875 Z M 145.769531 79.71875 " fill-opacity="1" fill-rule="nonzero"/></g><g clip-path="url(#c97ea0238b)"><path fill="#ff9900" d="M 156.460938 107.847656 C 137.496094 121.914062 110.257812 129.117188 86.8125 129.117188 C 55.089844 129.117188 24.75 117.796875 1.300781 96.871094 C -0.421875 95.15625 0.957031 93.097656 3.371094 94.46875 C 29.230469 109.21875 58.882812 117.109375 88.535156 117.109375 C 110.945312 117.109375 133.015625 112.648438 153.703125 103.730469 C 156.804688 102.015625 159.5625 105.445312 156.460938 107.847656 Z M 156.460938 107.847656 " fill-opacity="1" fill-rule="evenodd"/></g><g clip-path="url(#c490a51616)"><path fill="#ff9900" d="M 164.390625 98.929688 C 161.976562 95.839844 148.53125 97.554688 142.324219 98.242188 C 140.597656 98.585938 140.253906 96.871094 141.980469 95.839844 C 152.667969 88.292969 170.597656 90.351562 172.664062 93.097656 C 174.734375 95.5 171.976562 113.335938 161.976562 121.570312 C 160.253906 122.941406 158.875 122.253906 159.5625 120.539062 C 161.632812 114.707031 166.804688 102.015625 164.390625 98.929688 Z M 164.390625 98.929688 " fill-opacity="1" fill-rule="evenodd"/></g><g fill="#d9d9d9" fill-opacity="1"><g transform="translate(184.692152, 45.771426)"><g><path d="M 5.480469 -2.667969 C 6.90625 -0.695312 9.027344 0.4375 11.4375 0.4375 C 16.078125 0.4375 19.292969 -3.140625 19.292969 -8.84375 C 19.292969 -14.578125 16.078125 -18.085938 11.4375 -18.085938 C 8.953125 -18.085938 6.761719 -16.808594 5.480469 -15.019531 L 5.480469 -17.648438 L 2.742188 -17.648438 L 2.742188 6.722656 L 5.480469 6.722656 Z M 16.40625 -8.84375 C 16.40625 -4.933594 14.289062 -2.007812 10.742188 -2.007812 C 8.585938 -2.007812 6.429688 -3.324219 5.480469 -4.859375 L 5.480469 -12.824219 C 6.429688 -14.359375 8.585938 -15.640625 10.742188 -15.640625 C 14.289062 -15.640625 16.40625 -12.753906 16.40625 -8.84375 Z M 16.40625 -8.84375 "/></g></g></g><g fill="#d9d9d9" fill-opacity="1"><g transform="translate(205.657258, 45.771426)"><g><path d="M 16.515625 0 L 16.515625 -12.132812 C 16.515625 -16.40625 13.410156 -18.085938 9.683594 -18.085938 C 6.796875 -18.085938 4.53125 -17.136719 2.632812 -15.164062 L 3.910156 -13.265625 C 5.480469 -14.945312 7.199219 -15.710938 9.316406 -15.710938 C 11.875 -15.710938 13.777344 -14.359375 13.777344 -11.984375 L 13.777344 -8.804688 C 12.351562 -10.449219 10.339844 -11.21875 7.929688 -11.21875 C 4.933594 -11.21875 1.753906 -9.355469 1.753906 -5.40625 C 1.753906 -1.570312 4.933594 0.4375 7.929688 0.4375 C 10.304688 0.4375 12.3125 -0.402344 13.777344 -2.007812 L 13.777344 0 Z M 13.777344 -3.726562 C 12.714844 -2.265625 10.851562 -1.535156 8.914062 -1.535156 C 6.359375 -1.535156 4.566406 -3.140625 4.566406 -5.371094 C 4.566406 -7.636719 6.359375 -9.246094 8.914062 -9.246094 C 10.851562 -9.246094 12.714844 -8.515625 13.777344 -7.050781 Z M 13.777344 -3.726562 "/></g></g></g><g fill="#d9d9d9" fill-opacity="1"><g transform="translate(224.905719, 45.771426)"><g><path d="M 5.480469 0 L 5.480469 -12.496094 C 6.285156 -13.921875 8.585938 -15.308594 10.269531 -15.308594 C 10.707031 -15.308594 11.035156 -15.273438 11.363281 -15.199219 L 11.363281 -18.015625 C 8.953125 -18.015625 6.90625 -16.664062 5.480469 -14.800781 L 5.480469 -17.648438 L 2.742188 -17.648438 L 2.742188 0 Z M 5.480469 0 "/></g></g></g><g fill="#d9d9d9" fill-opacity="1"><g transform="translate(236.958835, 45.771426)"><g><path d="M 7.199219 0.4375 C 8.804688 0.4375 9.792969 -0.0351562 10.488281 -0.695312 L 9.683594 -2.742188 C 9.316406 -2.339844 8.585938 -2.007812 7.820312 -2.007812 C 6.613281 -2.007812 6.027344 -2.960938 6.027344 -4.273438 L 6.027344 -15.238281 L 9.609375 -15.238281 L 9.609375 -17.648438 L 6.027344 -17.648438 L 6.027344 -22.472656 L 3.289062 -22.472656 L 3.289062 -17.648438 L 0.367188 -17.648438 L 0.367188 -15.238281 L 3.289062 -15.238281 L 3.289062 -3.691406 C 3.289062 -1.058594 4.605469 0.4375 7.199219 0.4375 Z M 7.199219 0.4375 "/></g></g></g><g fill="#d9d9d9" fill-opacity="1"><g transform="translate(247.697064, 45.771426)"><g><path d="M 17.394531 0 L 17.394531 -12.386719 C 17.394531 -16.222656 15.457031 -18.085938 11.765625 -18.085938 C 9.136719 -18.085938 6.722656 -16.554688 5.480469 -15.089844 L 5.480469 -17.648438 L 2.742188 -17.648438 L 2.742188 0 L 5.480469 0 L 5.480469 -12.898438 C 6.503906 -14.324219 8.550781 -15.640625 10.707031 -15.640625 C 13.082031 -15.640625 14.652344 -14.652344 14.652344 -11.546875 L 14.652344 0 Z M 17.394531 0 "/></g></g></g><g fill="#d9d9d9" fill-opacity="1"><g transform="translate(267.82211, 45.771426)"><g><path d="M 1.71875 -8.84375 C 1.71875 -3.324219 5.480469 0.4375 10.707031 0.4375 C 13.59375 0.4375 15.96875 -0.511719 17.722656 -2.265625 L 16.40625 -4.054688 C 15.019531 -2.632812 12.972656 -1.828125 10.960938 -1.828125 C 7.160156 -1.828125 4.824219 -4.605469 4.605469 -7.929688 L 18.890625 -7.929688 L 18.890625 -8.625 C 18.890625 -13.921875 15.75 -18.085938 10.414062 -18.085938 C 5.371094 -18.085938 1.71875 -13.957031 1.71875 -8.84375 Z M 10.378906 -15.820312 C 14.398438 -15.820312 16.152344 -12.570312 16.1875 -9.9375 L 4.605469 -9.9375 C 4.75 -12.644531 6.613281 -15.820312 10.378906 -15.820312 Z M 10.378906 -15.820312 "/></g></g></g><g fill="#d9d9d9" fill-opacity="1"><g transform="translate(288.385438, 45.771426)"><g><path d="M 5.480469 0 L 5.480469 -12.496094 C 6.285156 -13.921875 8.585938 -15.308594 10.269531 -15.308594 C 10.707031 -15.308594 11.035156 -15.273438 11.363281 -15.199219 L 11.363281 -18.015625 C 8.953125 -18.015625 6.90625 -16.664062 5.480469 -14.800781 L 5.480469 -17.648438 L 2.742188 -17.648438 L 2.742188 0 Z M 5.480469 0 "/></g></g></g><g fill="#d9d9d9" fill-opacity="1"><g transform="translate(300.438555, 45.771426)"><g/></g></g><g fill="#d9d9d9" fill-opacity="1"><g transform="translate(309.861897, 45.771426)"><g><path d="M 17.394531 0 L 17.394531 -12.386719 C 17.394531 -16.222656 15.457031 -18.085938 11.765625 -18.085938 C 9.136719 -18.085938 6.722656 -16.554688 5.480469 -15.089844 L 5.480469 -17.648438 L 2.742188 -17.648438 L 2.742188 0 L 5.480469 0 L 5.480469 -12.898438 C 6.503906 -14.324219 8.550781 -15.640625 10.707031 -15.640625 C 13.082031 -15.640625 14.652344 -14.652344 14.652344 -11.546875 L 14.652344 0 Z M 17.394531 0 "/></g></g></g><g fill="#d9d9d9" fill-opacity="1"><g transform="translate(329.986943, 45.771426)"><g><path d="M 1.71875 -8.84375 C 1.71875 -3.324219 5.480469 0.4375 10.707031 0.4375 C 13.59375 0.4375 15.96875 -0.511719 17.722656 -2.265625 L 16.40625 -4.054688 C 15.019531 -2.632812 12.972656 -1.828125 10.960938 -1.828125 C 7.160156 -1.828125 4.824219 -4.605469 4.605469 -7.929688 L 18.890625 -7.929688 L 18.890625 -8.625 C 18.890625 -13.921875 15.75 -18.085938 10.414062 -18.085938 C 5.371094 -18.085938 1.71875 -13.957031 1.71875 -8.84375 Z M 10.378906 -15.820312 C 14.398438 -15.820312 16.152344 -12.570312 16.1875 -9.9375 L 4.605469 -9.9375 C 4.75 -12.644531 6.613281 -15.820312 10.378906 -15.820312 Z M 10.378906 -15.820312 "/></g></g></g><g fill="#d9d9d9" fill-opacity="1"><g transform="translate(350.550271, 45.771426)"><g><path d="M 7.199219 0.4375 C 8.804688 0.4375 9.792969 -0.0351562 10.488281 -0.695312 L 9.683594 -2.742188 C 9.316406 -2.339844 8.585938 -2.007812 7.820312 -2.007812 C 6.613281 -2.007812 6.027344 -2.960938 6.027344 -4.273438 L 6.027344 -15.238281 L 9.609375 -15.238281 L 9.609375 -17.648438 L 6.027344 -17.648438 L 6.027344 -22.472656 L 3.289062 -22.472656 L 3.289062 -17.648438 L 0.367188 -17.648438 L 0.367188 -15.238281 L 3.289062 -15.238281 L 3.289062 -3.691406 C 3.289062 -1.058594 4.605469 0.4375 7.199219 0.4375 Z M 7.199219 0.4375 "/></g></g></g><g fill="#d9d9d9" fill-opacity="1"><g transform="translate(361.2885, 45.771426)"><g><path d="M 20.753906 0 L 26.382812 -17.648438 L 23.53125 -17.648438 L 19.21875 -3.582031 L 14.578125 -17.648438 L 12.242188 -17.648438 L 7.601562 -3.582031 L 3.289062 -17.648438 L 0.4375 -17.648438 L 6.066406 0 L 8.804688 0 L 13.410156 -14.179688 L 18.015625 0 Z M 20.753906 0 "/></g></g></g><g fill="#d9d9d9" fill-opacity="1"><g transform="translate(388.097538, 45.771426)"><g><path d="M 10.449219 0.4375 C 15.820312 0.4375 19.183594 -3.726562 19.183594 -8.84375 C 19.183594 -13.957031 15.820312 -18.085938 10.449219 -18.085938 C 5.078125 -18.085938 1.71875 -13.957031 1.71875 -8.84375 C 1.71875 -3.726562 5.078125 0.4375 10.449219 0.4375 Z M 10.449219 -2.007812 C 6.6875 -2.007812 4.566406 -5.226562 4.566406 -8.84375 C 4.566406 -12.421875 6.6875 -15.640625 10.449219 -15.640625 C 14.214844 -15.640625 16.296875 -12.421875 16.296875 -8.84375 C 16.296875 -5.226562 14.214844 -2.007812 10.449219 -2.007812 Z M 10.449219 -2.007812 "/></g></g></g><g fill="#d9d9d9" fill-opacity="1"><g transform="translate(408.989593, 45.771426)"><g><path d="M 5.480469 0 L 5.480469 -12.496094 C 6.285156 -13.921875 8.585938 -15.308594 10.269531 -15.308594 C 10.707031 -15.308594 11.035156 -15.273438 11.363281 -15.199219 L 11.363281 -18.015625 C 8.953125 -18.015625 6.90625 -16.664062 5.480469 -14.800781 L 5.480469 -17.648438 L 2.742188 -17.648438 L 2.742188 0 Z M 5.480469 0 "/></g></g></g><g fill="#d9d9d9" fill-opacity="1"><g transform="translate(421.04271, 45.771426)"><g><path d="M 18.269531 0 L 10.414062 -9.648438 L 18.234375 -17.648438 L 14.761719 -17.648438 L 5.480469 -8.257812 L 5.480469 -24.371094 L 2.742188 -24.371094 L 2.742188 0 L 5.480469 0 L 5.480469 -5.042969 L 8.40625 -7.929688 L 14.761719 0 Z M 18.269531 0 "/></g></g></g><g fill="#ffffff" fill-opacity="1"><g transform="translate(184.692152, 92.549803)"><g><path d="M 27.59375 0 L 17.285156 -26.753906 L 10.148438 -26.753906 L -0.199219 0 L 6.054688 0 L 7.742188 -4.613281 L 19.695312 -4.613281 L 21.378906 0 Z M 18.128906 -9.546875 L 9.265625 -9.546875 L 13.71875 -21.820312 Z M 18.128906 -9.546875 "/></g></g></g><g fill="#ffffff" fill-opacity="1"><g transform="translate(212.117612, 92.549803)"><g><path d="M 13.195312 0 C 21.578125 0 27.394531 -5.292969 27.394531 -13.355469 C 27.394531 -21.417969 21.578125 -26.753906 13.195312 -26.753906 L 2.648438 -26.753906 L 2.648438 0 Z M 8.34375 -21.738281 L 13.195312 -21.738281 C 18.691406 -21.738281 21.578125 -18.089844 21.578125 -13.355469 C 21.578125 -8.824219 18.492188 -5.011719 13.195312 -5.011719 L 8.34375 -5.011719 Z M 8.34375 -21.738281 "/></g></g></g><g fill="#ffffff" fill-opacity="1"><g transform="translate(240.906332, 92.549803)"><g><path d="M 17.285156 0 L 27.59375 -26.753906 L 21.097656 -26.753906 L 13.71875 -6.175781 L 6.296875 -26.753906 L -0.199219 -26.753906 L 10.148438 0 Z M 17.285156 0 "/></g></g></g><g fill="#ffffff" fill-opacity="1"><g transform="translate(268.331792, 92.549803)"><g><path d="M 27.59375 0 L 17.285156 -26.753906 L 10.148438 -26.753906 L -0.199219 0 L 6.054688 0 L 7.742188 -4.613281 L 19.695312 -4.613281 L 21.378906 0 Z M 18.128906 -9.546875 L 9.265625 -9.546875 L 13.71875 -21.820312 Z M 18.128906 -9.546875 "/></g></g></g><g fill="#ffffff" fill-opacity="1"><g transform="translate(295.757251, 92.549803)"><g><path d="M 26.59375 0 L 26.59375 -26.753906 L 20.898438 -26.753906 L 20.898438 -9.425781 L 8.503906 -26.753906 L 2.648438 -26.753906 L 2.648438 0 L 8.34375 0 L 8.34375 -17.96875 L 21.097656 0 Z M 26.59375 0 "/></g></g></g><g fill="#ffffff" fill-opacity="1"><g transform="translate(324.987028, 92.549803)"><g><path d="M 15.402344 0.480469 C 21.5 0.480469 24.867188 -2.765625 26.792969 -6.097656 L 21.898438 -8.464844 C 20.777344 -6.257812 18.371094 -4.574219 15.402344 -4.574219 C 10.75 -4.574219 7.21875 -8.300781 7.21875 -13.355469 C 7.21875 -18.410156 10.75 -22.140625 15.402344 -22.140625 C 18.371094 -22.140625 20.777344 -20.414062 21.898438 -18.25 L 26.792969 -20.65625 C 24.90625 -23.984375 21.5 -27.195312 15.402344 -27.195312 C 7.582031 -27.195312 1.363281 -21.578125 1.363281 -13.355469 C 1.363281 -5.132812 7.582031 0.480469 15.402344 0.480469 Z M 15.402344 0.480469 "/></g></g></g><g fill="#ffffff" fill-opacity="1"><g transform="translate(352.532789, 92.549803)"><g><path d="M 21.578125 0 L 21.578125 -4.933594 L 8.34375 -4.933594 L 8.34375 -11.148438 L 21.296875 -11.148438 L 21.296875 -16.042969 L 8.34375 -16.042969 L 8.34375 -21.859375 L 21.578125 -21.859375 L 21.578125 -26.753906 L 2.648438 -26.753906 L 2.648438 0 Z M 21.578125 0 "/></g></g></g><g fill="#ffffff" fill-opacity="1"><g transform="translate(375.908599, 92.549803)"><g><path d="M 13.195312 0 C 21.578125 0 27.394531 -5.292969 27.394531 -13.355469 C 27.394531 -21.417969 21.578125 -26.753906 13.195312 -26.753906 L 2.648438 -26.753906 L 2.648438 0 Z M 8.34375 -21.738281 L 13.195312 -21.738281 C 18.691406 -21.738281 21.578125 -18.089844 21.578125 -13.355469 C 21.578125 -8.824219 18.492188 -5.011719 13.195312 -5.011719 L 8.34375 -5.011719 Z M 8.34375 -21.738281 "/></g></g></g><g fill="#545454" fill-opacity="1"><g transform="translate(184.692152, 131.309029)"><g><path d="M 1.550781 -7.984375 C 1.550781 -3.234375 4.75 0.394531 9.5 0.394531 C 12.402344 0.394531 14.117188 -0.792969 15.339844 -2.375 L 13.6875 -3.890625 C 12.632812 -2.472656 11.28125 -1.8125 9.632812 -1.8125 C 6.234375 -1.8125 4.125 -4.453125 4.125 -7.984375 C 4.125 -11.511719 6.234375 -14.117188 9.632812 -14.117188 C 11.28125 -14.117188 12.632812 -13.492188 13.6875 -12.039062 L 15.339844 -13.558594 C 14.117188 -15.140625 12.402344 -16.328125 9.5 -16.328125 C 4.75 -16.328125 1.550781 -12.699219 1.550781 -7.984375 Z M 1.550781 -7.984375 "/></g></g></g><g fill="#545454" fill-opacity="1"><g transform="translate(201.022818, 131.309029)"><g><path d="M 9.433594 0.394531 C 14.28125 0.394531 17.316406 -3.363281 17.316406 -7.984375 C 17.316406 -12.601562 14.28125 -16.328125 9.433594 -16.328125 C 4.585938 -16.328125 1.550781 -12.601562 1.550781 -7.984375 C 1.550781 -3.363281 4.585938 0.394531 9.433594 0.394531 Z M 9.433594 -1.8125 C 6.035156 -1.8125 4.125 -4.71875 4.125 -7.984375 C 4.125 -11.214844 6.035156 -14.117188 9.433594 -14.117188 C 12.832031 -14.117188 14.710938 -11.214844 14.710938 -7.984375 C 14.710938 -4.71875 12.832031 -1.8125 9.433594 -1.8125 Z M 9.433594 -1.8125 "/></g></g></g><g fill="#545454" fill-opacity="1"><g transform="translate(219.884206, 131.309029)"><g><path d="M 15.699219 0 L 15.699219 -11.183594 C 15.699219 -14.644531 13.953125 -16.328125 10.621094 -16.328125 C 8.246094 -16.328125 6.070312 -14.941406 4.949219 -13.621094 L 4.949219 -15.933594 L 2.472656 -15.933594 L 2.472656 0 L 4.949219 0 L 4.949219 -11.644531 C 5.871094 -12.929688 7.71875 -14.117188 9.664062 -14.117188 C 11.808594 -14.117188 13.226562 -13.226562 13.226562 -10.421875 L 13.226562 0 Z M 15.699219 0 "/></g></g></g><g fill="#545454" fill-opacity="1"><g transform="translate(238.053144, 131.309029)"><g><path d="M 1.089844 -2.109375 C 2.703125 -0.394531 4.914062 0.394531 7.519531 0.394531 C 11.644531 0.394531 13.789062 -1.75 13.789062 -4.421875 C 13.789062 -7.949219 10.589844 -8.742188 7.816406 -9.367188 C 5.738281 -9.863281 3.925781 -10.359375 3.925781 -11.90625 C 3.925781 -13.324219 5.277344 -14.316406 7.453125 -14.316406 C 9.5 -14.316406 11.246094 -13.457031 12.203125 -12.304688 L 13.359375 -14.019531 C 12.074219 -15.304688 10.160156 -16.328125 7.453125 -16.328125 C 3.660156 -16.328125 1.515625 -14.214844 1.515625 -11.742188 C 1.515625 -8.445312 4.585938 -7.71875 7.289062 -7.09375 C 9.433594 -6.5625 11.378906 -6.003906 11.378906 -4.253906 C 11.378906 -2.703125 10.0625 -1.617188 7.621094 -1.617188 C 5.441406 -1.617188 3.429688 -2.671875 2.375 -3.890625 Z M 1.089844 -2.109375 "/></g></g></g><g fill="#545454" fill-opacity="1"><g transform="translate(253.386269, 131.309029)"><g><path d="M 15.699219 0 L 15.699219 -15.933594 L 13.226562 -15.933594 L 13.226562 -4.222656 C 12.304688 -2.9375 10.457031 -1.8125 8.511719 -1.8125 C 6.367188 -1.8125 4.949219 -2.640625 4.949219 -5.441406 L 4.949219 -15.933594 L 2.472656 -15.933594 L 2.472656 -4.683594 C 2.472656 -1.21875 4.222656 0.394531 7.554688 0.394531 C 9.929688 0.394531 12.007812 -0.859375 13.226562 -2.242188 L 13.226562 0 Z M 15.699219 0 "/></g></g></g><g fill="#545454" fill-opacity="1"><g transform="translate(271.555207, 131.309029)"><g><path d="M 4.949219 0 L 4.949219 -22 L 2.472656 -22 L 2.472656 0 Z M 4.949219 0 "/></g></g></g><g fill="#545454" fill-opacity="1"><g transform="translate(278.974455, 131.309029)"><g><path d="M 6.5 0.394531 C 7.949219 0.394531 8.839844 -0.03125 9.46875 -0.625 L 8.742188 -2.472656 C 8.410156 -2.109375 7.75 -1.8125 7.058594 -1.8125 C 5.96875 -1.8125 5.441406 -2.671875 5.441406 -3.859375 L 5.441406 -13.753906 L 8.675781 -13.753906 L 8.675781 -15.933594 L 5.441406 -15.933594 L 5.441406 -20.285156 L 2.96875 -20.285156 L 2.96875 -15.933594 L 0.328125 -15.933594 L 0.328125 -13.753906 L 2.96875 -13.753906 L 2.96875 -3.332031 C 2.96875 -0.957031 4.15625 0.394531 6.5 0.394531 Z M 6.5 0.394531 "/></g></g></g><g fill="#545454" fill-opacity="1"><g transform="translate(288.668952, 131.309029)"><g><path d="M 3.695312 -18.605469 C 4.617188 -18.605469 5.375 -19.363281 5.375 -20.285156 C 5.375 -21.210938 4.617188 -21.933594 3.695312 -21.933594 C 2.804688 -21.933594 2.046875 -21.210938 2.046875 -20.285156 C 2.046875 -19.363281 2.804688 -18.605469 3.695312 -18.605469 Z M 4.949219 0 L 4.949219 -15.933594 L 2.472656 -15.933594 L 2.472656 0 Z M 4.949219 0 "/></g></g></g><g fill="#545454" fill-opacity="1"><g transform="translate(296.0882, 131.309029)"><g><path d="M 15.699219 0 L 15.699219 -11.183594 C 15.699219 -14.644531 13.953125 -16.328125 10.621094 -16.328125 C 8.246094 -16.328125 6.070312 -14.941406 4.949219 -13.621094 L 4.949219 -15.933594 L 2.472656 -15.933594 L 2.472656 0 L 4.949219 0 L 4.949219 -11.644531 C 5.871094 -12.929688 7.71875 -14.117188 9.664062 -14.117188 C 11.808594 -14.117188 13.226562 -13.226562 13.226562 -10.421875 L 13.226562 0 Z M 15.699219 0 "/></g></g></g><g fill="#545454" fill-opacity="1"><g transform="translate(314.257138, 131.309029)"><g><path d="M 2.441406 4.089844 C 4.320312 5.9375 6.167969 6.464844 8.875 6.464844 C 12.765625 6.464844 16.460938 4.816406 16.460938 -0.460938 L 16.460938 -15.933594 L 13.984375 -15.933594 L 13.984375 -13.523438 C 12.699219 -15.273438 10.785156 -16.328125 8.640625 -16.328125 C 4.453125 -16.328125 1.550781 -13.160156 1.550781 -8.046875 C 1.550781 -2.902344 4.484375 0.199219 8.640625 0.199219 C 10.886719 0.199219 12.832031 -1.023438 13.984375 -2.640625 L 13.984375 -0.363281 C 13.984375 3.132812 11.511719 4.421875 8.875 4.421875 C 6.597656 4.421875 5.015625 3.828125 3.695312 2.242188 Z M 13.984375 -4.585938 C 13.128906 -3.199219 11.214844 -1.980469 9.234375 -1.980469 C 6.035156 -1.980469 4.125 -4.550781 4.125 -8.046875 C 4.125 -11.578125 6.035156 -14.117188 9.234375 -14.117188 C 11.214844 -14.117188 13.128906 -12.929688 13.984375 -11.542969 Z M 13.984375 -4.585938 "/></g></g></g><g fill="#545454" fill-opacity="1"><g transform="translate(333.184479, 131.309029)"><g/></g></g><g fill="#545454" fill-opacity="1"><g transform="translate(341.691897, 131.309029)"><g><path d="M 4.949219 -2.40625 C 6.234375 -0.625 8.148438 0.394531 10.324219 0.394531 C 14.511719 0.394531 17.417969 -2.835938 17.417969 -7.984375 C 17.417969 -13.160156 14.511719 -16.328125 10.324219 -16.328125 C 8.082031 -16.328125 6.101562 -15.171875 4.949219 -13.558594 L 4.949219 -15.933594 L 2.472656 -15.933594 L 2.472656 6.070312 L 4.949219 6.070312 Z M 14.808594 -7.984375 C 14.808594 -4.453125 12.898438 -1.8125 9.699219 -1.8125 C 7.75 -1.8125 5.804688 -3 4.949219 -4.386719 L 4.949219 -11.578125 C 5.804688 -12.964844 7.75 -14.117188 9.699219 -14.117188 C 12.898438 -14.117188 14.808594 -11.511719 14.808594 -7.984375 Z M 14.808594 -7.984375 "/></g></g></g><g fill="#545454" fill-opacity="1"><g transform="translate(360.619238, 131.309029)"><g><path d="M 14.910156 0 L 14.910156 -10.949219 C 14.910156 -14.808594 12.105469 -16.328125 8.742188 -16.328125 C 6.136719 -16.328125 4.089844 -15.46875 2.375 -13.6875 L 3.53125 -11.972656 C 4.949219 -13.492188 6.5 -14.183594 8.410156 -14.183594 C 10.71875 -14.183594 12.433594 -12.964844 12.433594 -10.820312 L 12.433594 -7.949219 C 11.148438 -9.433594 9.335938 -10.125 7.15625 -10.125 C 4.453125 -10.125 1.582031 -8.445312 1.582031 -4.882812 C 1.582031 -1.417969 4.453125 0.394531 7.15625 0.394531 C 9.300781 0.394531 11.117188 -0.363281 12.433594 -1.8125 L 12.433594 0 Z M 12.433594 -3.363281 C 11.480469 -2.046875 9.796875 -1.386719 8.046875 -1.386719 C 5.738281 -1.386719 4.125 -2.835938 4.125 -4.847656 C 4.125 -6.894531 5.738281 -8.34375 8.046875 -8.34375 C 9.796875 -8.34375 11.480469 -7.6875 12.433594 -6.367188 Z M 12.433594 -3.363281 "/></g></g></g><g fill="#545454" fill-opacity="1"><g transform="translate(377.996776, 131.309029)"><g><path d="M 4.949219 0 L 4.949219 -11.28125 C 5.671875 -12.566406 7.75 -13.820312 9.269531 -13.820312 C 9.664062 -13.820312 9.960938 -13.789062 10.257812 -13.722656 L 10.257812 -16.261719 C 8.082031 -16.261719 6.234375 -15.042969 4.949219 -13.359375 L 4.949219 -15.933594 L 2.472656 -15.933594 L 2.472656 0 Z M 4.949219 0 "/></g></g></g><g fill="#545454" fill-opacity="1"><g transform="translate(388.878353, 131.309029)"><g><path d="M 6.5 0.394531 C 7.949219 0.394531 8.839844 -0.03125 9.46875 -0.625 L 8.742188 -2.472656 C 8.410156 -2.109375 7.75 -1.8125 7.058594 -1.8125 C 5.96875 -1.8125 5.441406 -2.671875 5.441406 -3.859375 L 5.441406 -13.753906 L 8.675781 -13.753906 L 8.675781 -15.933594 L 5.441406 -15.933594 L 5.441406 -20.285156 L 2.96875 -20.285156 L 2.96875 -15.933594 L 0.328125 -15.933594 L 0.328125 -13.753906 L 2.96875 -13.753906 L 2.96875 -3.332031 C 2.96875 -0.957031 4.15625 0.394531 6.5 0.394531 Z M 6.5 0.394531 "/></g></g></g><g fill="#545454" fill-opacity="1"><g transform="translate(398.57285, 131.309029)"><g><path d="M 15.699219 0 L 15.699219 -11.183594 C 15.699219 -14.644531 13.953125 -16.328125 10.621094 -16.328125 C 8.246094 -16.328125 6.070312 -14.941406 4.949219 -13.621094 L 4.949219 -15.933594 L 2.472656 -15.933594 L 2.472656 0 L 4.949219 0 L 4.949219 -11.644531 C 5.871094 -12.929688 7.71875 -14.117188 9.664062 -14.117188 C 11.808594 -14.117188 13.226562 -13.226562 13.226562 -10.421875 L 13.226562 0 Z M 15.699219 0 "/></g></g></g><g fill="#545454" fill-opacity="1"><g transform="translate(416.741789, 131.309029)"><g><path d="M 1.550781 -7.984375 C 1.550781 -3 4.949219 0.394531 9.664062 0.394531 C 12.269531 0.394531 14.414062 -0.460938 15.996094 -2.046875 L 14.808594 -3.660156 C 13.558594 -2.375 11.710938 -1.648438 9.894531 -1.648438 C 6.464844 -1.648438 4.355469 -4.15625 4.15625 -7.15625 L 17.054688 -7.15625 L 17.054688 -7.785156 C 17.054688 -12.566406 14.214844 -16.328125 9.402344 -16.328125 C 4.847656 -16.328125 1.550781 -12.601562 1.550781 -7.984375 Z M 9.367188 -14.28125 C 12.996094 -14.28125 14.578125 -11.347656 14.613281 -8.972656 L 4.15625 -8.972656 C 4.289062 -11.414062 5.96875 -14.28125 9.367188 -14.28125 Z M 9.367188 -14.28125 "/></g></g></g><g fill="#545454" fill-opacity="1"><g transform="translate(435.306406, 131.309029)"><g><path d="M 4.949219 0 L 4.949219 -11.28125 C 5.671875 -12.566406 7.75 -13.820312 9.269531 -13.820312 C 9.664062 -13.820312 9.960938 -13.789062 10.257812 -13.722656 L 10.257812 -16.261719 C 8.082031 -16.261719 6.234375 -15.042969 4.949219 -13.359375 L 4.949219 -15.933594 L 2.472656 -15.933594 L 2.472656 0 Z M 4.949219 0 "/></g></g></g></svg>